<?xml version="1.0" encoding="utf-8"?>
<svg viewBox="0 0 100 100" xmlns="http://www.w3.org/2000/svg" xmlns:xlink="http://www.w3.org/1999/xlink" >
<path d="M87,38.5l-2.6-6.1c0,0,6-13.5,5.5-14.1L82,10.6c-0.5-0.5-14.1,5.6-14.1,5.6l-6.2-2.5c0,0-5.5-13.7-6.3-13.7H44.2c-0.8,0-5.9,13.7-5.9,13.7L32,16.3c0,0-13.8-5.9-14.4-5.4l-7.9,7.8c-0.5,0.5,5.8,13.8,5.8,13.8l-2.6,6.1c0,0-14,5.4-14,6.1v11c0,0.8,14,5.8,14,5.8l2.6,6.1c0,0-6,13.5-5.5,14l7.9,7.8c0.5,0.5,14.1-5.7,14.1-5.7l6.2,2.5c0,0,5.5,13.7,6.3,13.7h11.2c0.8,0,5.9-13.7,5.9-13.7l6.3-2.5c0,0,13.8,5.9,14.3,5.4l7.9-7.8c0.6-0.5-5.8-13.8-5.8-13.8l2.6-6.1c0,0,14-5.4,14-6.1v-11C101.1,43.5,87,38.5,87,38.5z M66.4,50c0,8.8-7.3,16-16.4,16c-9,0-16.4-7.2-16.4-16S41,34,50,34C59,34,66.4,41.2,66.4,50z"/>
</svg>
