<?xml version="1.0" encoding="utf-8"?>
<!-- Generator: Adobe Illustrator 23.0.3, SVG Export Plug-In . SVG Version: 6.00 Build 0)  -->
<svg version="1.1" id="Layer_1" xmlns="http://www.w3.org/2000/svg" xmlns:xlink="http://www.w3.org/1999/xlink" x="0px" y="0px"
	 viewBox="0 0 100 100" style="enable-background:new 0 0 100 100;" xml:space="preserve">
<path d="M50,26.3L14.3,55.7c0,0,0,0.1,0,0.2c0,0.1,0,0.1,0,0.2v29.8c0,1.1,0.4,2,1.2,2.8c0.8,0.8,1.7,1.2,2.8,1.2h23.8V66h15.9v23.8
	h23.8c1.1,0,2-0.4,2.8-1.2c0.8-0.8,1.2-1.7,1.2-2.8V56c0-0.2,0-0.3-0.1-0.4L50,26.3z"/>
<path d="M99.3,49L85.7,37.7V12.4c0-0.6-0.2-1.1-0.6-1.4c-0.4-0.4-0.8-0.6-1.4-0.6H71.8c-0.6,0-1.1,0.2-1.4,0.6
	c-0.4,0.4-0.6,0.8-0.6,1.4v12.1L54.7,11.8c-1.3-1.1-2.9-1.6-4.7-1.6c-1.8,0-3.4,0.5-4.7,1.6L0.7,49C0.3,49.3,0,49.8,0,50.3
	c0,0.6,0.1,1,0.4,1.5l3.8,4.6C4.6,56.7,5.1,57,5.6,57c0.5,0,1-0.1,1.5-0.4L50,20.8l42.9,35.8c0.3,0.3,0.8,0.4,1.3,0.4h0.2
	c0.5-0.1,1-0.3,1.3-0.7l3.8-4.6c0.3-0.4,0.5-0.9,0.4-1.5C100,49.8,99.7,49.3,99.3,49z"/>
</svg>
