<?xml version="1.0" encoding="utf-8"?>
<svg viewBox="0 0 100 100" xmlns="http://www.w3.org/2000/svg" xmlns:xlink="http://www.w3.org/1999/xlink" >
<path d="M50,0C22.4,0,0,22.4,0,50s22.4,50,50,50s50-22.4,50-50S77.6,0,50,0z M56.3,21.9c3.5,0,6.3,2.8,6.3,6.3s-2.8,6.3-6.3,6.3
	S50,31.6,50,28.1S52.8,21.9,56.3,21.9z M61.8,75.1c-5.7,2.2-7.3,3-11,3c-3,0-5.3-0.7-7-2.2c-3.3-2.9-2.7-7-1.7-11.3l3.1-10.9
	c0.6-2.2,1.8-6.8,0.1-8.4c-1.7-1.6-5.6-0.6-7.9,0.3l0.8-3.4c3.3-1.3,7.5-3,11-3c5.3,0,9.3,2.7,9.3,7.7c0,0.5-0.1,1.3-0.2,2.5
	c-0.2,2.2-0.3,2-3.7,14.1c-0.4,1.3-1,4.2-1,5.5c0,5.3,6.1,4,8.9,2.6L61.8,75.1z"/>
</svg>
