<?xml version="1.0" encoding="utf-8"?>
<svg version="1.1" xmlns="http://www.w3.org/2000/svg" xmlns:xlink="http://www.w3.org/1999/xlink" x="0px" y="0px"
	 viewBox="0 0 46.2 46.2" style="enable-background:new 0 0 46.2 46.2;" xml:space="preserve">
<path d="M35.8,8.3c-5.9,0-10.6,4.8-10.6,10.7S30.1,29.6,36,29.6c0.1,0,0.1,0,0.2,0c-2.3,1.9-5.3,3-8.5,3
	c-1.5,0-2.7,1.2-2.7,2.7s0.9,2.7,2.4,2.7c10.5,0,18.7-8.5,18.7-19c0,0,0,0,0,0C46.2,13,41.7,8.3,35.8,8.3z"/>
<path  d="M10.8,8.3C4.9,8.3,0.2,13,0.2,18.9S5,29.6,10.9,29.6c0.1,0,0.1,0,0.2,0c-2.3,1.9-5.3,3-8.5,3
	c-1.5,0-2.7,1.2-2.7,2.7s1,2.7,2.4,2.7c10.5,0,18.8-8.5,18.8-19c0,0,0,0,0,0C21.2,13,16.6,8.3,10.8,8.3z"/>
</svg>
