<?xml version="1.0" encoding="utf-8"?>
<svg viewBox="0 0 100 100" xmlns="http://www.w3.org/2000/svg" xmlns:xlink="http://www.w3.org/1999/xlink" >
<path d="M50,20.2c-19.1,0-36.4,10.5-49.2,27.4c-1,1.4-1,3.3,0,4.7c12.8,17,30.1,27.5,49.2,27.5s36.4-10.5,49.2-27.4c1-1.4,1-3.3,0-4.7C86.4,30.6,69.1,20.2,50,20.2z M51.4,71C38.7,71.8,28.2,61.3,29,48.6c0.7-10.5,9.1-19,19.6-19.6c12.7-0.8,23.2,9.7,22.4,22.4C70.3,61.8,61.8,70.3,51.4,71z M50.7,61.3c-6.8,0.4-12.5-5.2-12-12c0.3-5.6,4.9-10.2,10.6-10.6c6.8-0.4,12.5,5.2,12,12C60.9,56.4,56.4,60.9,50.7,61.3z" />
</svg>
