<?xml version="1.0" encoding="utf-8"?>
<svg viewBox="0 0 100 100" xmlns="http://www.w3.org/2000/svg" xmlns:xlink="http://www.w3.org/1999/xlink" >
<g>
	<path style="fill:#F44336;" d="M95.8,22.3c-2.7-4.8-5.7-5.7-11.7-6c-6-0.4-21-0.6-34.1-0.6c-13.1,0-28.1,0.2-34.1,0.6
		c-6,0.3-8.9,1.2-11.7,6.1C1.4,27.1,0,35.4,0,50c0,0,0,0,0,0c0,0,0,0,0,0v0c0,14.6,1.4,22.9,4.2,27.7c2.7,4.8,5.7,5.7,11.7,6.1
		c6,0.3,21,0.6,34.1,0.6c13,0,28.1-0.2,34.1-0.6c6-0.4,8.9-1.3,11.7-6.1c2.8-4.8,4.2-13.1,4.2-27.7c0,0,0,0,0,0c0,0,0,0,0,0
		C100,35.4,98.6,27.1,95.8,22.3z"/>
	<polygon style="fill:#FAFAFA;" points="37.5,68.8 37.5,31.3 68.8,50"/>
</g>
</svg>
